# xmcd CD database file
#
# Track frame offsets:
#	150
#	17819
#	30400
#	45500
#	61106
#	77276
#	91531
#	111644
#	129888
#	145613
#	161039
#	171847
#	185383
#
# Disc length: 2760 seconds
#
# Revision: 0
# Processed by: cddbd v1.5.2PL0 Copyright (c) Steve Scherf et al.
# Submitted via: CDex 1.51
#
DISCID=930ac60d
DTITLE=Lynette Guest - Trail Of Dreams
DYEAR=2008
DGENRE=Country
TTITLE0=Trail Of Dreams
TTITLE1=Here I Go Down the Wrong Roag Again
TTITLE2=Hobo's Meditation
TTITLE3=Diamantina Sunset
TTITLE4=Riding Out The Storm
TTITLE5=Just Lovin' You
TTITLE6=A Bushman Can't Survive
TTITLE7=Silver Wings
TTITLE8=One Bird On A Wing
TTITLE9=Ryleigh's Last Run
TTITLE10=Somewhere Between
TTITLE11=Love Someone Like Me
TTITLE12=Murray River Blues
EXTD=YEAR: 2008
EXTT0=
EXTT1=
EXTT2=
EXTT3=
EXTT4=
EXTT5=
EXTT6=
EXTT7=
EXTT8=
EXTT9=
EXTT10=
EXTT11=
EXTT12=
PLAYORDER=
